<?xml version="1.0" encoding="utf-8"?>
<!-- Generator: Adobe Illustrator 19.2.1, SVG Export Plug-In . SVG Version: 6.00 Build 0)  -->
<svg version="1.1" id="Layer_1" xmlns="http://www.w3.org/2000/svg" xmlns:xlink="http://www.w3.org/1999/xlink" x="0px" y="0px"
	 viewBox="0 0 250 250" style="enable-background:new 0 0 250 250;" xml:space="preserve">
<style type="text/css">
	.st0{fill:#808184;}
	.st1{fill:none;stroke:#808184;stroke-width:0.7276;stroke-miterlimit:10;}
	.st2{fill:none;}
</style>
<g>
	<g id="Platforms-matched">
		<g id="Shape-Copy-67">
			<g id="Shape">
				<path class="st0" d="M162.2,149.9c-3.2,0-16.8,14.4-37.2,14.4s-34-14.4-37.2-14.4c-30.4,0-33.8,48.7-35.9,72
					c-0.4,4.5,15.8,14.3,57.4,23.9l29.4,0.3c16.5,0,59.5-11.5,59.5-28.3C198.1,194.3,192.6,149.9,162.2,149.9z M164.9,116.7
					c0-22-17.9-39.9-39.9-39.9s-39.9,17.9-39.9,39.9s17.9,39.9,39.9,39.9S164.9,138.7,164.9,116.7L164.9,116.7z"/>
			</g>
		</g>
	</g>
	<g>
		<path class="st0" d="M125,250C56.1,250,0,193.9,0,125S56.1,0,125,0s125,56.1,125,125S193.9,250,125,250z M125,7.8
			C60.4,7.8,7.8,60.4,7.8,125S60.4,242.2,125,242.2c64.6,0,117.2-52.6,117.2-117.2S189.6,7.8,125,7.8z"/>
	</g>
</g>
</svg>
